
<svg width="148px" height="20px" viewBox="0 0 148 20" version="1.1" xmlns="http://www.w3.org/2000/svg" xmlns:xlink="http://www.w3.org/1999/xlink">
    <!-- Generator: Sketch 50.2 (55047) - http://www.bohemiancoding.com/sketch -->
    <desc>Created with Sketch.</desc>
    <defs></defs>
    <g id="Page-1" stroke="none" stroke-width="1" fill="none" fill-rule="evenodd">
        <g id="Group-3" fill="#ABABAB" fill-rule="nonzero">
            <path d="M133.333333,5.33333333 L133.333333,0 L124,9.33333333 L133.333333,18.6666667 L133.333333,13.2 C140,13.2 144.666667,15.3333333 148,20 C146.666667,13.3333333 142.666667,6.66666667 133.333333,5.33333333 Z" id="Shape" transform="translate(136.000000, 10.000000) scale(-1, 1) translate(-136.000000, -10.000000) "></path>
            <path d="M0,20 L4,20 L4,8 L0,8 L0,20 Z M22,9 C22,7.9 21.1,7 20,7 L13.7,7 L14.7,2.4 C14.7,2.3 14.7,2.2 14.7,2.1 C14.7,1.7 14.5,1.3 14.3000392,1 L13.2,0 L6.6,6.6 C6.2,6.9 6,7.4 6,8 L6,18 C6,19.1 6.9,20 8,20 L17,20 C17.8,20 18.5,19.5 18.8,18.8 L21.8,11.6999608 C21.9,11.4999608 21.9,11.1999608 21.9,10.9999608 L21.9,8.99996078 L22,8.99996078 C22,9.1 22,9 22,9 Z" id="Shape"></path>
            <path d="M62,20 L66,20 L66,8 L62,8 L62,20 Z M84,9 C84,7.9 83.1,7 82,7 L75.7,7 L76.7,2.4 C76.7,2.3 76.7,2.2 76.7,2.1 C76.7,1.7 76.5,1.3 76.3000392,1 L75.2,0 L68.6,6.6 C68.2,6.9 68,7.4 68,8 L68,18 C68,19.1 68.9,20 70,20 L79,20 C79.8,20 80.5,19.5 80.8,18.8 L83.8,11.6999608 C83.9,11.4999608 83.9,11.1999608 83.9,10.9999608 L83.9,8.99996078 L84,8.99996078 C84,9.1 84,9 84,9 Z" id="Shape" transform="translate(73.000000, 10.000000) scale(-1, -1) translate(-73.000000, -10.000000) "></path>
        </g>
    </g>
</svg>